<?xml version="1.0" encoding="UTF-8"?>
<svg id="Capa_2" data-name="Capa 2" xmlns="http://www.w3.org/2000/svg" viewBox="0 0 556.15 196.04">
  <defs>
    <style>
      .cls-1 {
        fill: #fff;
      }
    </style>
  </defs>
  <g id="Capa_1-2" data-name="Capa 1">
    <g>
      <g>
        <path class="cls-1" d="M88.74,29.24c24.4,0,34.03,11.19,34.03,32.17v9.48c0,17.09-6.37,27.51-21.91,30.93l25.02,31.7c1.09,1.4.93,4.51-2.33,4.51h-23.93c-2.95,0-3.89-.78-4.97-2.18l-22.84-31.08H28.28v29.22c0,2.64-1.4,4.04-4.04,4.04H4.04c-2.64,0-4.04-1.4-4.04-4.04V33.9c0-3.11,1.55-4.66,4.66-4.66h84.07ZM28.28,82.54h54.86c8.55,0,11.34-3.42,11.34-10.72v-6.68c0-7.3-2.8-10.72-11.34-10.72H30.15c-1.24,0-1.87.62-1.87,2.02v26.11Z"/>
        <path class="cls-1" d="M208.1,51.62c28.28,0,37.45,9.01,37.45,31.86v41.96c0,10.26-2.49,12.59-11.5,12.59h-74.75c-18.65,0-24.4-6.68-24.4-22.38v-8.08c0-13.05,5.75-20.51,24.4-20.51h59.99v-2.49c0-7.92-2.64-11.03-13.83-11.03h-64.65c-2.18,0-3.26-1.09-3.26-3.26v-15.39c0-2.18,1.09-3.26,3.26-3.26h67.29ZM219.29,113.47v-10.26h-52.37c-4.51,0-6.22,2.02-6.22,5.75v2.95c0,4.04,1.71,5.9,6.22,5.9h48.49c2.8,0,3.89-1.24,3.89-4.35Z"/>
        <path class="cls-1" d="M283.48,51.62c2.8,0,4.2,1.24,4.2,4.04v78.32c0,2.64-1.4,4.04-4.2,4.04h-18.03c-2.8,0-4.04-1.4-4.04-4.04V55.66c0-2.8,1.24-4.04,4.04-4.04h18.03Z"/>
        <path class="cls-1" d="M415.42,29.24c2.8,0,4.04,1.4,4.04,4.04v17.41c0,2.8-1.24,4.2-4.04,4.2h-75.99c-4.2,0-6.06,2.33-6.06,6.53v4.04c0,4.35,1.86,6.53,5.9,6.53h55.94c18.34,0,28.28,10.1,28.28,27.66v12.43c0,15.54-9.32,25.95-28.75,25.95h-85.47c-2.64,0-4.04-1.4-4.04-4.04v-17.41c0-2.8,1.4-4.04,4.04-4.04h79.88c4.35,0,6.22-2.49,6.22-6.68v-4.97c0-4.35-1.87-6.53-6.06-6.53h-55.79c-18.49,0-28.44-10.1-28.44-27.66v-11.34c0-15.7,9.48-26.11,28.75-26.11h81.59Z"/>
        <path class="cls-1" d="M552.03,29.24c2.8,0,4.04,1.4,4.04,4.04v17.41c0,2.8-1.24,4.2-4.04,4.2h-68.07c-13.36,0-16.94,3.42-16.94,17.09h84.07c2.8,0,4.04,1.24,4.04,4.04v14.3c0,2.8-1.24,4.04-4.04,4.04h-84.07c0,14.61,3.42,18.18,16.94,18.18h68.07c2.8,0,4.04,1.24,4.04,4.04v17.41c0,2.64-1.24,4.04-4.04,4.04h-68.53c-31.86,0-43.98-11.19-43.98-41.03v-26.73c0-29.84,12.12-41.03,43.98-41.03h68.53Z"/>
        <path class="cls-1" d="M282.09,17.5l13.73,3.69c.38.1.38.64,0,.75l-13.73,3.69c-1.7.46-3.03,1.78-3.48,3.48l-3.69,13.73c-.1.38-.64.38-.75,0l-3.69-13.73c-.46-1.7-1.78-3.03-3.48-3.48l-13.73-3.69c-.38-.1-.38-.64,0-.75l13.73-3.69c1.7-.46,3.03-1.78,3.48-3.48l3.69-13.73c.1-.38.64-.38.75,0l3.69,13.73c.46,1.7,1.78,3.03,3.48,3.48Z"/>
      </g>
      <g>
        <path class="cls-1" d="M3.07,195.56v-31.51h19.67v3.43H6.92v10.38h14.53v3.43H6.92v14.28h-3.85Z"/>
        <path class="cls-1" d="M60.64,195.56v-31.51h11.53c2.24,0,4.16.39,5.76,1.18,1.6.79,2.82,1.9,3.67,3.34.85,1.44,1.27,3.13,1.27,5.08s-.44,3.62-1.33,5.05c-.89,1.44-2.15,2.55-3.79,3.33-1.64.78-3.57,1.17-5.82,1.17h-9.14v-3.41h9.26c1.49,0,2.76-.25,3.81-.75,1.04-.5,1.84-1.21,2.38-2.14.54-.92.81-2.01.81-3.27s-.27-2.38-.82-3.3c-.55-.92-1.35-1.63-2.39-2.14-1.04-.51-2.32-.76-3.83-.76h-7.53v28.11h-3.85ZM78.94,195.56l-7.61-14.17h4.36l7.74,14.17h-4.48Z"/>
        <path class="cls-1" d="M119.3,195.56l11.61-31.51h4.38l11.53,31.51h-4.1l-6.64-18.93c-.42-1.24-.91-2.68-1.45-4.31-.54-1.63-1.22-3.77-2.04-6.41h1.02c-.82,2.64-1.5,4.78-2.04,6.42-.54,1.64-1.03,3.08-1.47,4.3l-6.75,18.93h-4.04ZM125.26,186.72v-3.41h15.59v3.41h-15.59Z"/>
        <path class="cls-1" d="M189.72,195.56v-31.51h5.29l7.95,20.26c.18.45.4,1.01.66,1.68.25.67.51,1.37.77,2.11s.51,1.45.75,2.12c.24.67.44,1.24.59,1.7h-.87c.15-.45.35-1.01.58-1.68.23-.67.48-1.37.75-2.11.27-.74.53-1.45.77-2.13s.45-1.24.62-1.69l7.82-20.26h5.31v31.51h-3.79v-18.21c0-.68,0-1.41.01-2.2,0-.79.02-1.6.04-2.43.02-.83.04-1.68.06-2.54.02-.86.04-1.69.05-2.5h.51c-.35.99-.69,1.95-1.03,2.9-.33.94-.65,1.84-.96,2.67s-.6,1.6-.86,2.29c-.26.69-.49,1.29-.69,1.8l-7.25,18.21h-3.19l-7.32-18.21c-.2-.49-.43-1.08-.7-1.78-.27-.69-.56-1.46-.87-2.29s-.64-1.73-.98-2.68c-.35-.94-.71-1.92-1.09-2.92h.66c.03.79.05,1.61.06,2.45s.03,1.69.05,2.54c.02.85.04,1.66.04,2.45,0,.79.01,1.53.01,2.22v18.21h-3.79Z"/>
        <path class="cls-1" d="M263.01,195.56v-31.51h20.24v3.43h-16.39v10.28h15.21v3.43h-15.21v10.96h16.43v3.43h-20.28Z"/>
        <path class="cls-1" d="M328.2,195.56l-8.59-31.51h3.91l5.08,19.6c.27,1.01.52,2.03.76,3.06s.47,2.05.7,3.09c.23,1.04.44,2.08.63,3.12h-.47c.21-1.04.43-2.08.66-3.12.23-1.04.47-2.07.72-3.09.25-1.02.51-2.04.78-3.06l5.18-19.6h4.42l5.14,19.6c.27,1.01.53,2.03.78,3.06.25,1.02.5,2.05.73,3.09.23,1.04.45,2.08.67,3.12h-.51c.21-1.04.43-2.08.66-3.12.23-1.04.47-2.07.72-3.09.25-1.02.51-2.04.76-3.06l5.05-19.6h3.93l-8.63,31.51h-4.48l-5.5-20.24c-.37-1.38-.71-2.79-1.04-4.23-.32-1.44-.63-2.92-.93-4.44h.82c-.31,1.51-.62,2.97-.92,4.4s-.65,2.85-1.05,4.27l-5.48,20.24h-4.53Z"/>
        <path class="cls-1" d="M417.05,196.04c-2.75,0-5.2-.69-7.35-2.06-2.15-1.37-3.84-3.28-5.06-5.72-1.23-2.44-1.84-5.25-1.84-8.44s.61-6.02,1.84-8.47,2.91-4.36,5.06-5.73c2.15-1.37,4.6-2.06,7.35-2.06s5.24.69,7.38,2.06c2.14,1.38,3.82,3.29,5.04,5.73,1.22,2.45,1.83,5.27,1.83,8.47s-.61,6-1.83,8.44c-1.22,2.44-2.9,4.35-5.04,5.72-2.14,1.38-4.6,2.06-7.38,2.06ZM417.05,192.47c1.9,0,3.64-.49,5.22-1.47,1.58-.98,2.84-2.41,3.79-4.29.94-1.88,1.42-4.18,1.42-6.88s-.47-5.04-1.42-6.93c-.94-1.88-2.21-3.31-3.79-4.29-1.58-.98-3.32-1.47-5.22-1.47s-3.62.49-5.2,1.47c-1.58.98-2.84,2.41-3.8,4.3-.95,1.89-1.43,4.19-1.43,6.92s.48,5,1.43,6.88,2.22,3.31,3.8,4.29c1.58.98,3.31,1.47,5.2,1.47Z"/>
        <path class="cls-1" d="M470.91,195.56v-31.51h11.53c2.24,0,4.16.39,5.76,1.18,1.6.79,2.82,1.9,3.67,3.34.85,1.44,1.27,3.13,1.27,5.08s-.44,3.62-1.33,5.05c-.89,1.44-2.15,2.55-3.79,3.33-1.64.78-3.57,1.17-5.82,1.17h-9.14v-3.41h9.26c1.49,0,2.76-.25,3.81-.75,1.04-.5,1.84-1.21,2.38-2.14.54-.92.81-2.01.81-3.27s-.27-2.38-.82-3.3c-.55-.92-1.35-1.63-2.39-2.14-1.04-.51-2.32-.76-3.83-.76h-7.53v28.11h-3.85ZM489.2,195.56l-7.61-14.17h4.36l7.74,14.17h-4.48Z"/>
        <path class="cls-1" d="M532.27,195.56v-31.51h3.85v31.51h-3.85ZM534.89,186.55v-4.84c.73-.86,1.46-1.7,2.19-2.52.73-.82,1.46-1.63,2.2-2.44.74-.81,1.49-1.62,2.25-2.44l9.54-10.26h5.08l-13.45,14.36h-.19l-7.61,8.14ZM551.6,195.56l-11.55-16.16,2.39-3.02,13.7,19.18h-4.55Z"/>
      </g>
    </g>
  </g>
</svg>